<?xml version="1.0" encoding="UTF-8"?>
<svg width="121px" height="37px" viewBox="0 0 121 37" version="1.1" xmlns="http://www.w3.org/2000/svg" xmlns:xlink="http://www.w3.org/1999/xlink">
    <!-- Generator: Sketch 47.1 (45422) - http://www.bohemiancoding.com/sketch -->
    <title>Amazon Logo</title>
    <desc>Created with Sketch.</desc>
    <defs>
        <polygon id="path-1" points="15.3963583 0.0151589552 15.3963583 21.0557336 0.0437356009 21.0557336 0.0437356009 0.0151589552 15.3963583 0.0151589552"></polygon>
        <polygon id="path-3" points="0 0.103020149 0 21.5991918 17.8661354 21.5991918 17.8661354 0.103020149 3.71849385e-21 0.103020149"></polygon>
    </defs>
    <g id="Symbols" stroke="none" stroke-width="1" fill="none" fill-rule="evenodd">
        <g id="Where-students-work---1170" transform="translate(-1043.000000, -155.000000)">
            <g id="Amazon-Logo" transform="translate(1043.000000, 155.000000)">
                <g>
                    <path d="M74.9155449,28.9157209 C67.9000143,34.1269224 57.7286061,36.8969522 48.9683159,36.8969522 C36.6918918,36.8969522 25.6383635,32.3310418 17.271529,24.7289224 C16.6171413,24.1338851 17.2021118,23.3157433 17.9917671,23.7779672 C27.0165562,29.0653776 38.179012,32.2479299 49.7052909,32.2479299 C57.4808442,32.2479299 66.0295902,30.6249 73.8943159,27.2661836 C75.0807195,26.7608851 76.075334,28.0545045 74.9155449,28.9157209" id="Fill-1" fill="#000000"></path>
                    <path d="M77.835349,25.5621127 C76.9364918,24.4048963 71.9036052,25.0134634 69.6399998,25.2859933 C68.9562537,25.3691052 68.8503444,24.7671649 69.4682401,24.3317246 C73.4834646,21.4915604 80.0624624,22.3130157 80.8290701,23.2606575 C81.5992447,24.2218291 80.6276778,30.8597396 76.8637821,34.0287619 C76.285671,34.5177694 75.7336256,34.2549037 75.9912651,33.6129261 C76.8371676,31.4845978 78.7339317,26.719053 77.835349,25.5621127" id="Fill-3" fill="#000000"></path>
                    <path d="M69.8009764,4.27637164 L69.8009764,1.51959552 C69.8042689,1.09713284 70.1181556,0.817976119 70.4948744,0.817976119 L82.781176,0.817976119 C83.1743574,0.817976119 83.4885184,1.10707313 83.4885184,1.51628209 L83.4885184,3.88069254 C83.4849515,4.27637164 83.1546023,4.7952 82.5630467,5.61665522 L76.2019039,14.7617299 C78.5612667,14.7054015 81.0627565,15.0610433 83.2072825,16.2748642 C83.6899107,16.547394 83.8221601,16.9532896 83.8583778,17.3522821 L83.8583778,20.2954388 C83.8583778,20.7010582 83.4191011,21.1701851 82.9562281,20.9238866 C79.1725773,18.9319612 74.1564277,18.7124463 69.9763029,20.9506701 C69.5463551,21.1765358 69.1004934,20.7143119 69.1004934,20.3086925 L69.1004934,17.5118791 C69.1004934,17.062909 69.1070785,16.2980582 69.556507,15.6163194 L76.9290014,4.97136418 L70.5116113,4.97136418 C70.1181556,4.97136418 69.8042689,4.68889403 69.8009764,4.27637164" id="Fill-5" fill="#000000"></path>
                    <path d="M24.9888048,21.5049799 L21.2512492,21.5049799 C20.8945599,21.4815097 20.6103059,21.2120172 20.5839658,20.8696291 L20.5839658,1.56501716 C20.5839658,1.17927836 20.9077299,0.870024627 21.3074964,0.870024627 L24.7871381,0.870024627 C25.1506868,0.88686791 25.4448184,1.16602463 25.467866,1.5186291 L25.467866,4.03932313 L25.5372832,4.03932313 C26.4427254,1.60174104 28.1545599,0.464405224 30.454383,0.464405224 C32.7939907,0.464405224 34.2580633,1.60174104 35.3056324,4.03932313 C36.2108002,1.60174104 38.2697209,0.464405224 40.4672016,0.464405224 C42.0366347,0.464405224 43.7484692,1.11273358 44.7927458,2.57616642 C45.9788751,4.19892015 45.7379726,6.55670373 45.7379726,8.62842761 L45.7344057,20.8097112 C45.7344057,21.1957261 45.4106415,21.5049799 45.0141676,21.5049799 L41.2799045,21.5049799 C40.9031857,21.4815097 40.6093286,21.1821963 40.6093286,20.8130246 L40.6093286,10.5772784 C40.6093286,9.76576343 40.6787458,7.73380075 40.5034193,6.96259925 C40.2224578,5.66207687 39.3867073,5.29621866 38.3059385,5.29621866 C37.3972039,5.29621866 36.4552696,5.90478582 36.0722401,6.88252463 C35.6889363,7.85695 35.725154,9.47997985 35.725154,10.5772784 L35.725154,20.8097112 C35.725154,21.1957261 35.4013898,21.5049799 35.0046415,21.5049799 L31.2706528,21.5049799 C30.893934,21.4815097 30.5998025,21.1821963 30.5998025,20.8130246 L30.59651,10.5772784 C30.59651,8.42575597 30.9435961,5.25645746 28.29312,5.25645746 C25.6067005,5.25645746 25.7126098,8.34264403 25.7126098,10.5772784 L25.7090429,20.8097112 C25.7090429,21.1957261 25.3885712,21.5049799 24.9888048,21.5049799" id="Fill-7" fill="#000000"></path>
                    <path d="M94.0993678,4.40311045 C91.3435311,4.40311045 91.1682045,8.18097612 91.1682045,10.5351701 C91.1682045,12.8932299 91.1352794,17.9313045 94.0631501,17.9313045 C96.9611138,17.9313045 97.0999483,13.8673791 97.0999483,11.3900358 C97.0999483,9.76396866 97.0305311,7.81511791 96.5413179,6.27216269 C96.1217964,4.9318791 95.2857714,4.40311045 94.0993678,4.40311045 M94.0631501,0.462334328 C99.6113156,0.462334328 102.611896,5.2577 102.611896,11.3499985 C102.611896,17.2396254 99.297429,21.9118418 94.0631501,21.9118418 C88.6206195,21.9118418 85.6565311,17.1164761 85.6565311,11.1473269 C85.6565311,5.13455075 88.6568372,0.462334328 94.0631501,0.462334328" id="Fill-9" fill="#000000"></path>
                    <g id="Group-13" transform="translate(105.360544, 0.449246)">
                        <mask id="mask-2" fill="white">
                            <use xlink:href="#path-1"></use>
                        </mask>
                        <g id="Clip-12"></g>
                        <path d="M4.44528209,21.0557336 L0.721170975,21.0557336 C0.347470295,21.0322634 0.0503206349,20.73295 0.0503206349,20.3637784 L0.0437356009,1.04922612 C0.076660771,0.696897761 0.387254875,0.420778358 0.763973696,0.420778358 L4.23044535,0.420778358 C4.55420952,0.437621642 4.82529342,0.660173881 4.89471066,0.959487313 L4.89471066,3.91258433 L4.96412789,3.91258433 C6.01169705,1.2723306 7.47549524,0.0151589552 10.0562798,0.0151589552 C11.7318966,0.0151589552 13.3707469,0.623726119 14.4183161,2.2898306 C15.396468,3.83278582 15.396468,6.43327836 15.396468,8.3023306 L15.396468,20.4471664 C15.3536653,20.7895545 15.0493819,21.0557336 14.6795224,21.0557336 L10.9320893,21.0557336 C10.5850032,21.0322634 10.3073342,20.7763007 10.267824,20.4471664 L10.267824,9.96512164 C10.267824,7.85336045 10.5122934,4.76717388 7.92821633,4.76717388 C7.02304853,4.76717388 6.18345669,5.37574104 5.76695329,6.31040522 C5.24508934,7.48750224 5.17210522,8.66487537 5.17210522,9.96512164 L5.17210522,20.3604649 C5.16579456,20.7464799 4.84175601,21.0557336 4.44528209,21.0557336" id="Fill-11" fill="#000000" mask="url(#mask-2)"></path>
                    </g>
                    <path d="M63.7759721,21.4564381 C63.5282102,21.6792664 63.1712465,21.6958336 62.8935776,21.5425873 C61.6512011,20.5052067 61.4297794,20.0261396 60.7520696,19.0387366 C58.7000084,21.1402813 57.2460878,21.7723187 54.5893009,21.7723187 C51.4433009,21.7723187 48.9947658,19.8171172 48.9947658,15.9094754 C48.9947658,12.8564231 50.637183,10.7813858 52.9800832,9.76057239 C55.0090968,8.86594552 57.8409358,8.70303507 60.0087839,8.46032612 L60.0087839,7.97131866 C60.0087839,7.07365448 60.0782011,6.01611716 59.5527703,5.24436343 C59.1000492,4.5493709 58.2242397,4.26690075 57.4543395,4.26690075 C56.0300515,4.26690075 54.7643531,5.00165448 54.4504664,6.5247291 C54.3876342,6.86407985 54.1398723,7.19984104 53.8029381,7.21640821 L50.1811694,6.8207291 C49.8738678,6.7508709 49.5333667,6.50484851 49.6228134,6.03599776 C50.4552714,1.61311716 54.4241263,0.276147015 57.9797703,0.276147015 C59.7972397,0.276147015 62.176632,0.764878358 63.607505,2.14851269 C65.4279925,3.85769179 65.2529404,6.1389903 65.2529404,8.62323657 L65.2529404,14.4827664 C65.2529404,16.2452366 65.9800379,17.0167142 66.6640583,17.9679455 C66.902217,18.3103336 66.9548973,18.7162291 66.6508882,18.9655649 C65.8872986,19.6105799 64.5294098,20.7978933 63.7858497,21.4663784 L63.7759721,21.4564381 Z M60.0087839,12.2845799 C60.0087839,13.75105 60.0417091,14.9714978 59.3083009,16.2750575 C58.7134528,17.3325948 57.7715186,17.9845127 56.7206569,17.9845127 C55.2867658,17.9845127 54.4471739,16.8872142 54.4471739,15.2575575 C54.4471739,12.0551246 57.3023349,11.4730649 60.0087839,11.4730649 L60.0087839,12.2845799 Z" id="Fill-14" fill="#000000"></path>
                    <g id="Group-18" transform="translate(0.000000, 0.173127)">
                        <mask id="mask-4" fill="white">
                            <use xlink:href="#path-3"></use>
                        </mask>
                        <g id="Clip-17"></g>
                        <path d="M14.7811515,21.2833112 C14.5333896,21.5061396 14.1764259,21.5227067 13.8987569,21.3694604 C12.6563805,20.3320799 12.4349587,19.8530127 11.7542308,18.8656097 C9.70518776,20.9671545 8.2515415,21.5991918 5.59448027,21.5991918 C2.44875465,21.5991918 -5.48752834e-05,19.6439903 -5.48752834e-05,15.7363485 C-5.48752834e-05,12.6832963 1.64236236,10.608259 3.98526259,9.58744552 C6.01427619,8.69281866 8.84611519,8.52990821 11.0139633,8.28719925 L11.0139633,7.79819179 C11.0139633,6.90052761 11.0833805,5.8429903 10.5579497,5.07123657 C10.1052286,4.37624403 9.22969342,4.09377388 8.45951882,4.09377388 C7.03550522,4.09377388 5.76651429,4.82852761 5.4556458,6.35160224 C5.39308798,6.69095299 5.1450517,7.02671418 4.80811746,7.04328134 L1.18634875,6.64760224 C0.879047166,6.57774403 0.538546032,6.33172164 0.627718367,5.8628709 C1.46072517,1.4399903 5.42930567,0.103020149 8.98494966,0.103020149 C10.802419,0.103020149 13.1818113,0.591751493 14.6157025,1.97538582 C16.4334463,3.68456493 16.2581197,5.96586343 16.2581197,8.4501097 L16.2581197,14.3096396 C16.2581197,16.0721097 16.9852172,16.8435873 17.6692376,17.7948187 C17.907122,18.1372067 17.9600766,18.5431022 17.6560676,18.7924381 C16.8927524,19.437453 15.5345891,20.6247664 14.791029,21.2932515 L14.7811515,21.2833112 Z M11.0139633,12.111453 C11.0139633,13.5779231 11.0471628,14.7983709 10.3134803,16.1019306 C9.7186322,17.1594679 8.77669796,17.8113858 7.72611066,17.8113858 C6.29194512,17.8113858 5.45235329,16.7140873 5.45235329,15.0844306 C5.45235329,11.8819978 8.3108068,11.2999381 11.0139633,11.2999381 L11.0139633,12.111453 Z" id="Fill-16" fill="#000000" mask="url(#mask-4)"></path>
                    </g>
                </g>
            </g>
        </g>
    </g>
</svg>