<?xml version="1.0" encoding="UTF-8"?>
<svg width="152px" height="35px" viewBox="0 0 152 35" version="1.1" xmlns="http://www.w3.org/2000/svg" xmlns:xlink="http://www.w3.org/1999/xlink">
    <!-- Generator: Sketch 47.1 (45422) - http://www.bohemiancoding.com/sketch -->
    <title>Boeing Logo</title>
    <desc>Created with Sketch.</desc>
    <defs>
        <polygon id="path-1" points="2.34985795e-15 26.9578636 2.34985795e-15 2.46722727 24.2195674 2.46722727 24.2195674 26.9578636"></polygon>
    </defs>
    <g id="Symbols" stroke="none" stroke-width="1" fill="none" fill-rule="evenodd">
        <g id="Where-students-work---1170" transform="translate(-544.000000, -160.000000)">
            <g id="Boeing-Logo" transform="translate(544.000000, 160.000000)">
                <g>
                    <g id="Group-3" transform="translate(0.000000, 1.408355)">
                        <mask id="mask-2" fill="white">
                            <use xlink:href="#path-1"></use>
                        </mask>
                        <g id="Clip-2"></g>
                        <path d="M12.1092848,26.0328636 C5.92941522,26.0328636 0.913676087,20.9638636 0.913676087,14.7108636 C0.913676087,8.45786364 5.92941522,3.38886364 12.1092848,3.38886364 C18.2924804,3.38886364 23.3048935,8.45786364 23.3048935,14.7108636 C23.3048935,20.9638636 18.2924804,26.0328636 12.1092848,26.0328636 M12.1092848,2.46722727 C5.42052391,2.46722727 -0.000997826087,7.94995455 -0.000997826087,14.7108636 C-0.000997826087,21.4751364 5.42052391,26.9578636 12.1092848,26.9578636 C18.7980457,26.9578636 24.2195674,21.4751364 24.2195674,14.7108636 C24.2195674,7.94995455 18.7980457,2.46722727 12.1092848,2.46722727" id="Fill-1" fill="#231F20" mask="url(#mask-2)"></path>
                    </g>
                    <path d="M25.0886739,-1.77635684e-15 C7.58347826,10.4003636 -2.91697826,31.1506364 2.25508696,34.6353636 C4.44365217,36.112 9.20328261,33.4379091 12.0537391,29.082 C12.0537391,29.082 7.64002174,33.1116364 5.21530435,32.1832727 C0.735065217,30.4745455 9.63234783,13.1787273 25.0886739,-1.77635684e-15" id="Fill-4" fill="#231F20"></path>
                    <path d="M21.0481435,25.6477273 C26.3266435,25.2171818 42.0856435,24.7967273 42.0856435,24.7967273 C42.0856435,23.8145455 25.0893391,25.2171818 16.6843174,17.3731818 L21.0481435,25.6477273 Z" id="Fill-6" fill="#231F20"></path>
                    <polygon id="Fill-8" fill="#231F20" points="87.280513 7.42993636 101.007274 7.42993636 99.0282522 10.0838455 92.1565565 10.0838455 90.4602522 12.3543 97.3352739 12.3576636 95.3629043 15.0048455 88.4845565 15.0048455 86.665187 17.4502091 93.5402087 17.4502091 91.564513 20.1007545 77.8410783 20.1007545"></polygon>
                    <polygon id="Fill-10" fill="#231F20" points="95.4530413 20.1027727 104.895802 7.43195455 111.744215 7.42859091 102.30478 20.1027727"></polygon>
                    <polygon id="Fill-12" fill="#231F20" points="122.925522 13.8534727 121.462043 7.43229091 116.103717 7.43229091 106.660957 20.1031091 111.197739 20.1031091 115.937413 13.7391091 117.394239 20.1031091 122.805783 20.1031091 132.245217 7.43229091 127.711761 7.43229091"></polygon>
                    <path d="M150.706996,13.2735818 L142.278691,13.2735818 L139.614496,16.8457636 C139.341757,17.2124 138.906039,17.4478545 138.42043,17.4478545 L136.481322,17.4478545 C136.238517,17.4478545 136.045604,17.2527636 136.045604,17.0072182 C136.045604,16.9096727 136.078865,16.8188545 136.132083,16.7448545 L140.648909,10.6835818 C140.921648,10.3203091 141.354039,10.0814909 141.842974,10.0814909 L143.782083,10.0814909 C144.021561,10.0814909 144.2178,10.2765818 144.2178,10.5221273 C144.2178,10.6196727 144.184539,10.7138545 144.127996,10.7844909 L143.396257,11.7700364 L150.238017,11.7700364 L151.452039,10.1487636 C151.661583,9.86621818 151.784648,9.50967273 151.784648,9.12958182 C151.784648,8.19112727 151.036278,7.43094545 150.1083,7.43094545 L139.102278,7.43094545 C137.213061,7.43094545 135.540039,8.34249091 134.488996,9.75521818 L128.804713,17.3839455 C128.59517,17.6698545 128.465452,18.0230364 128.465452,18.4031273 C128.465452,19.3415818 129.217148,20.1017636 130.145126,20.1017636 L141.151148,20.1017636 C143.037039,20.1017636 144.710061,19.1868545 145.767757,17.7774909 L147.131452,15.9409455 L148.717996,15.9409455 L150.706996,13.2735818 Z" id="Fill-14" fill="#231F20"></path>
                    <path d="M69.4972565,16.8461 C69.2245174,17.2127364 68.7888,17.4515545 68.3031913,17.4515545 L66.3640826,17.4481909 C66.1212783,17.4481909 65.9283652,17.2531 65.9283652,17.0109182 C65.9283652,16.9100091 65.9616261,16.8191909 66.0148435,16.7451909 L70.5316696,10.6839182 C70.8044087,10.3206455 71.2368,10.0818273 71.7257348,10.0818273 L73.6648435,10.0818273 C73.9043217,10.0818273 74.1005609,10.2802818 74.1005609,10.5224636 C74.1005609,10.6200091 74.0673,10.7141909 74.0107565,10.7881909 L69.4972565,16.8461 Z M79.9877348,7.43128182 L68.9850391,7.43128182 C67.0991478,7.43128182 65.4261261,8.34282727 64.3717565,9.75891818 L58.6874739,17.3842818 C58.4779304,17.6701909 58.348213,18.0233727 58.348213,18.4068273 C58.348213,19.3419182 59.1032348,20.1021 60.027887,20.1021 L71.0339087,20.1021 C72.9164739,20.1021 74.5928217,19.1905545 75.6505174,17.7778273 L81.3348,10.1491 C81.5410174,9.86655455 81.6674087,9.51000909 81.6674087,9.12991818 C81.6674087,8.19146364 80.9190391,7.43128182 79.9877348,7.43128182 L79.9877348,7.43128182 Z" id="Fill-16" fill="#231F20"></path>
                    <polygon id="Fill-18" fill="#231F20" points="35.742463 20.1010909 45.1852239 7.43027273 52.0303109 7.43027273 42.5942022 20.1010909"></polygon>
                    <path d="M42.5928717,20.1010909 L50.1131543,20.1010909 C51.9957196,20.1010909 53.6720674,19.1895455 54.726437,17.7768182 L56.0601978,15.9873636 C56.2298283,15.762 56.3262848,15.4794545 56.3262848,15.1733636 C56.3262848,14.7226364 56.1100891,14.3257273 55.7808065,14.0768182 C57.1278717,13.7673636 58.3019804,12.9802727 59.1068935,11.8971818 L60.4073935,10.1514545 C60.6235891,9.86554545 60.7466543,9.51236364 60.7466543,9.12890909 C60.7466543,8.19045455 59.9949587,7.43027273 59.0703065,7.43027273 L52.0323065,7.43027273 L50.0566109,10.0808182 L52.7440891,10.0808182 C52.9835674,10.0808182 53.1798065,10.2792727 53.1798065,10.5214545 C53.1798065,10.6223636 53.1465457,10.7131818 53.0933283,10.7871818 L52.3715674,11.7525455 C52.0988283,12.1191818 51.666437,12.3546364 51.1741761,12.3546364 L48.3636326,12.3546364 L46.387937,15.0051818 L49.0754152,15.0051818 C49.3148935,15.0051818 49.5111326,15.2036364 49.5111326,15.4458182 C49.5111326,15.5467273 49.4778717,15.6375455 49.4246543,15.7115455 L48.5765022,16.8484545 C48.303763,17.2150909 47.8680457,17.4505455 47.3791109,17.4505455 L44.5685674,17.4505455 L42.5928717,20.1010909 Z" id="Fill-20" fill="#231F20"></path>
                </g>
            </g>
        </g>
    </g>
</svg>