<?xml version="1.0" encoding="UTF-8"?>
<svg width="142px" height="45px" viewBox="0 0 142 45" version="1.1" xmlns="http://www.w3.org/2000/svg" xmlns:xlink="http://www.w3.org/1999/xlink">
    <!-- Generator: Sketch 47.1 (45422) - http://www.bohemiancoding.com/sketch -->
    <title>Google Logo</title>
    <desc>Created with Sketch.</desc>
    <defs>
        <polygon id="path-1" points="33.9620734 0.411036585 0.000221875 0.411036585 0.000221875 34.8922866 33.9620734 34.8922866 33.9620734 0.411036585"></polygon>
        <polygon id="path-3" points="0 44.5892378 141.540164 44.5892378 141.540164 0.549054878 0 0.549054878"></polygon>
    </defs>
    <g id="Symbols" stroke="none" stroke-width="1" fill="none" fill-rule="evenodd">
        <g id="Where-students-work---1170" transform="translate(0.000000, -151.000000)">
            <g id="Google-Logo" transform="translate(0.000000, 151.000000)">
                <g>
                    <g id="Group-3" transform="translate(0.000000, 0.138018)">
                        <mask id="mask-2" fill="white">
                            <use xlink:href="#path-1"></use>
                        </mask>
                        <g id="Clip-2"></g>
                        <path d="M17.6781125,16.0998476 L17.6781125,20.8122256 L29.0630734,20.8122256 C28.7147297,23.4557012 27.8239016,25.3907012 26.4688,26.7505793 C24.8036281,28.3980183 22.2088,30.1985671 17.6781125,30.1985671 C10.6685266,30.1985671 5.18932344,24.6053963 5.18932344,17.6704573 C5.18932344,10.7360671 10.6685266,5.14234756 17.6781125,5.14234756 C21.4538703,5.14234756 24.2223156,6.61746951 26.2558,8.51405488 L29.6050031,5.19996951 C26.7783156,2.47966463 22.9831437,0.410762195 17.6781125,0.410762195 C8.07425312,0.410762195 0.000221875,8.15021341 0.000221875,17.6517988 C0.000221875,27.1533841 8.07425312,34.8922866 17.6781125,34.8922866 C22.8672141,34.8922866 26.7783156,33.2064329 29.8374172,30.0646646 C32.9747297,26.961311 33.9620734,22.5749085 33.9620734,19.0495427 C33.9620734,17.9580183 33.8844172,16.9427744 33.7102453,16.0998476 L17.6781125,16.0998476 Z" id="Fill-1" fill="#000000" mask="url(#mask-2)"></path>
                    </g>
                    <path d="M48.1934688,30.2794573 C44.7854687,30.2794573 41.8422969,27.5015305 41.8422969,23.5365915 C41.8422969,19.532689 44.7854687,16.7931768 48.1934688,16.7931768 C51.6014688,16.7931768 54.5440859,19.532689 54.5440859,23.5365915 C54.5440859,27.5015305 51.6014688,30.2794573 48.1934688,30.2794573 M48.1934688,12.4067744 C41.9776406,12.4067744 36.9050234,17.0807378 36.9050234,23.5365915 C36.9050234,29.9348232 41.9776406,34.6664085 48.1934688,34.6664085 C54.4087422,34.6664085 59.4819141,29.9534817 59.4819141,23.5365915 C59.4819141,17.0807378 54.4087422,12.4067744 48.1934688,12.4067744" id="Fill-4" fill="#000000"></path>
                    <path d="M97.8580797,30.2794573 C94.4500797,30.2794573 91.8563609,27.4060427 91.8563609,23.5365915 C91.8563609,19.6095183 94.4500797,16.7931768 97.8580797,16.7931768 C101.227252,16.7931768 103.860353,19.6671402 103.860353,23.5744573 C103.879767,27.4631159 101.227252,30.2794573 97.8580797,30.2794573 L97.8580797,30.2794573 Z M103.531978,14.8971402 L103.357252,14.8971402 C102.253978,13.5943354 100.123978,12.4067744 97.4320797,12.4067744 C91.8169781,12.4067744 86.9185328,17.2530549 86.9185328,23.5365915 C86.9185328,29.7817134 91.8169781,34.6664085 97.4320797,34.6664085 C100.123978,34.6664085 102.253978,33.4782988 103.357252,32.137628 L103.531978,32.137628 L103.531978,33.6895793 C103.531978,37.9420793 101.227252,40.2217134 97.52915,40.2217134 C94.5088766,40.2217134 92.63015,38.0759817 91.8563609,36.2562256 L87.5575328,38.0189085 C88.7967047,40.9691524 92.0688062,44.5889085 97.52915,44.5889085 C103.318978,44.5889085 108.217423,41.21775 108.217423,32.9997622 L108.217423,12.9813476 L103.531978,12.9813476 L103.531978,14.8971402 Z" id="Fill-6" fill="#000000"></path>
                    <path d="M73.3645773,30.2794573 C69.9565773,30.2794573 67.0139602,27.5015305 67.0139602,23.5365915 C67.0139602,19.532689 69.9565773,16.7931768 73.3645773,16.7931768 C76.7725773,16.7931768 79.7157492,19.532689 79.7157492,23.5365915 C79.7157492,27.5015305 76.7725773,30.2794573 73.3645773,30.2794573 M73.3645773,12.4067744 C67.1493039,12.4067744 62.076132,17.0807378 62.076132,23.5365915 C62.076132,29.9348232 67.1493039,34.6664085 73.3645773,34.6664085 C79.5798508,34.6664085 84.6530227,29.9534817 84.6530227,23.5365915 C84.6530227,17.0807378 79.5798508,12.4067744 73.3645773,12.4067744" id="Fill-8" fill="#000000"></path>
                    <mask id="mask-4" fill="white">
                        <use xlink:href="#path-3"></use>
                    </mask>
                    <g id="Clip-11"></g>
                    <polygon id="Fill-10" fill="#000000" mask="url(#mask-4)" points="112.089586 34.666189 116.949758 34.666189 116.949758 1.00838415 112.089586 1.00838415"></polygon>
                    <path d="M131.60732,16.5827195 C133.601976,16.5827195 135.305421,17.5979634 135.86732,19.0346707 L125.702116,23.1911341 C125.702116,18.5171707 129.051874,16.5827195 131.60732,16.5827195 M131.955663,30.2791829 C129.438491,30.2791829 127.65739,29.1492439 126.49532,26.9080244 L141.540109,20.758939 L141.037007,19.4945488 C140.107351,17.0041829 137.241835,12.4065 131.413179,12.4065 C125.62446,12.4065 120.802562,16.9081463 120.802562,23.5363171 C120.802562,29.781439 125.565663,34.6666829 131.955663,34.6666829 C137.105937,34.6666829 140.087937,31.5435732 141.327109,29.7430244 L137.493109,27.2147927 C136.215663,29.0532073 134.472835,30.2791829 131.955663,30.2791829" id="Fill-12" fill="#000000" mask="url(#mask-4)"></path>
                </g>
            </g>
        </g>
    </g>
</svg>