<?xml version="1.0" encoding="UTF-8"?>
<svg width="88px" height="36px" viewBox="0 0 88 36" version="1.1" xmlns="http://www.w3.org/2000/svg" xmlns:xlink="http://www.w3.org/1999/xlink">
    <!-- Generator: Sketch 47.1 (45422) - http://www.bohemiancoding.com/sketch -->
    <title>IBM Logo</title>
    <desc>Created with Sketch.</desc>
    <defs>
        <polygon id="path-1" points="0 35.4926571 87.7476429 35.4926571 87.7476429 0.000514285714 0 0.000514285714"></polygon>
    </defs>
    <g id="Symbols" stroke="none" stroke-width="1" fill="none" fill-rule="evenodd">
        <g id="Where-students-work---1170" transform="translate(-386.000000, -156.000000)">
            <g id="IBM-Logo" transform="translate(386.000000, 156.000000)">
                <g>
                    <mask id="mask-2" fill="white">
                        <use xlink:href="#path-1"></use>
                    </mask>
                    <g id="Clip-2"></g>
                    <path d="M75.4427571,35.4926571 L87.7476429,35.4926571 L87.7476429,33.0639429 L75.4427571,33.0639429 L75.4427571,35.4926571 Z M67.3157857,33.0639429 L68.1727286,35.4862286 L68.3189429,35.4888 L69.1898714,33.0639429 L67.3157857,33.0639429 Z M48.7478429,35.4926571 L60.9179571,35.4926571 L60.9179571,33.0639429 L48.7478429,33.0639429 L48.7478429,35.4926571 Z M19.4999,33.0639429 L19.4999,35.4888 L38.0614857,35.4888 C41.3532143,35.4888 43.8388571,33.0639429 43.8388571,33.0639429 L19.4999,33.0639429 Z M0.1335,35.4926571 L17.2138714,35.4926571 L17.2138714,33.0639429 L0.1335,33.0639429 L0.1335,35.4926571 Z M75.4427571,30.7702286 L87.7476429,30.7702286 L87.7476429,28.3376571 L75.4427571,28.3376571 L75.4427571,30.7702286 Z M65.6247857,28.3389429 L66.5160571,30.7702286 L69.9819714,30.7702286 L70.8173,28.3389429 L65.6247857,28.3389429 Z M48.7478429,30.7702286 L60.9179571,30.7702286 L60.9179571,28.3376571 L48.7478429,28.3376571 L48.7478429,30.7702286 Z M19.4999,28.3389429 L19.4999,30.7702286 L45.7930429,30.7702286 C46.3473857,30.2135143 46.6652429,28.3389429 46.6652429,28.3389429 L19.4999,28.3389429 Z M0.1335,30.7702286 L17.2138714,30.7702286 L17.2138714,28.3376571 L0.1335,28.3376571 L0.1335,30.7702286 Z M75.4427571,26.0439429 L82.8373857,26.0439429 L82.8373857,23.6152286 L75.4427571,23.6152286 L75.4427571,26.0439429 Z M63.9426857,23.6165143 L64.8098,26.0439429 L71.6195714,26.0439429 L72.4930429,23.6165143 L63.9426857,23.6165143 Z M53.5233286,26.0439429 L60.9179571,26.0439429 L60.9179571,23.6152286 L53.5233286,23.6152286 L53.5233286,26.0439429 Z M38.9998,23.6165143 L38.9998,26.0439429 L46.8661286,26.0439429 C46.8661286,24.8983714 46.3969714,23.6165143 46.3969714,23.6165143 L38.9998,23.6165143 Z M24.4076143,26.0439429 L31.8035143,26.0439429 L31.8035143,23.6152286 L24.4076143,23.6152286 L24.4076143,26.0439429 Z M4.90771429,26.0439429 L12.3048857,26.0439429 L12.3048857,23.6152286 L4.90771429,23.6152286 L4.90771429,26.0439429 Z M75.4427571,21.3228 L82.8373857,21.3228 L82.8373857,18.8940857 L75.4427571,18.8940857 L75.4427571,21.3228 Z M62.2618571,18.8940857 L63.1582143,21.3228 L73.3182,21.3228 L74.1662429,18.8940857 L62.2618571,18.8940857 Z M53.5233286,21.3228 L60.9179571,21.3228 L60.9179571,18.8940857 L53.5233286,18.8940857 L53.5233286,21.3228 Z M24.4076143,18.8940857 L24.4076143,21.3228 L45.3861857,21.3228 C44.8814286,20.1438 43.3023143,18.8940857 43.3023143,18.8940857 L24.4076143,18.8940857 Z M4.90771429,21.3228 L12.3048857,21.3228 L12.3048857,18.8940857 L4.90771429,18.8940857 L4.90771429,21.3228 Z M53.5233286,14.1703714 L53.5233286,16.5990857 L60.9192286,16.5990857 L60.9192286,15.2478 L61.3883857,16.5990857 L74.9392714,16.5990857 L75.4427571,15.2478 L75.4427571,16.5990857 L82.8386571,16.5990857 L82.8386571,14.1703714 L68.9546571,14.1703714 L68.2172286,16.2275143 L67.4772571,14.1703714 L53.5233286,14.1703714 Z M24.4076143,14.1703714 L24.4076143,16.5990857 L43.3023143,16.5990857 C43.3023143,16.5990857 44.8814286,15.3532286 45.3861857,14.1703714 L24.4076143,14.1703714 Z M4.90771429,16.5990857 L12.3048857,16.5990857 L12.3048857,14.1703714 L4.90771429,14.1703714 L4.90771429,16.5990857 Z M70.5363143,9.44408571 L69.6603,11.8766571 L82.8386571,11.8766571 L82.8386571,9.44408571 L70.5363143,9.44408571 Z M53.5233286,9.44408571 L53.5233286,11.8766571 L66.6381143,11.8766571 L65.7633714,9.44408571 L53.5233286,9.44408571 Z M38.9998,9.44408571 L38.9998,11.8766571 L46.3969714,11.8766571 C46.3969714,11.8766571 46.8661286,10.5922286 46.8661286,9.44408571 L38.9998,9.44408571 Z M24.4076143,11.8766571 L31.8035143,11.8766571 L31.8035143,9.44408571 L24.4076143,9.44408571 L24.4076143,11.8766571 Z M4.90771429,11.8766571 L12.3048857,11.8766571 L12.3048857,9.44408571 L4.90771429,9.44408571 L4.90771429,11.8766571 Z M72.1484857,4.72551429 L71.3385857,7.15037143 L87.6141429,7.15037143 L87.6141429,4.72551429 L72.1484857,4.72551429 Z M48.6143429,4.72551429 L48.6143429,7.15037143 L64.9534714,7.15037143 L64.1448429,4.72551429 L48.6143429,4.72551429 Z M19.4999,4.72551429 L19.4999,7.15037143 L46.6652429,7.15037143 C46.6652429,7.15037143 46.3473857,5.28222857 45.7930429,4.72551429 L19.4999,4.72551429 Z M0,7.15037143 L17.0803714,7.15037143 L17.0803714,4.72165714 L0,4.72165714 L0,7.15037143 Z M73.8967,0.000514285714 L73.0219571,2.42794286 L87.6141429,2.42794286 L87.6141429,0.000514285714 L73.8967,0.000514285714 Z M48.6143429,0.000514285714 L48.6143429,2.42794286 L63.3400286,2.42794286 L62.4652857,0.000514285714 L48.6143429,0.000514285714 Z M19.4999,0.000514285714 L19.4999,2.42794286 L43.8388571,2.42794286 C43.8388571,2.42794286 41.3532143,0.000514285714 38.0614857,0.000514285714 L19.4999,0.000514285714 Z M0,2.42794286 L17.0803714,2.42794286 L17.0803714,-0.000771428571 L0,-0.000771428571 L0,2.42794286 Z" id="Fill-1" fill="#000000" mask="url(#mask-2)"></path>
                </g>
            </g>
        </g>
    </g>
</svg>