<?xml version="1.0" encoding="UTF-8"?>
<svg width="106px" height="24px" viewBox="0 0 106 24" version="1.1" xmlns="http://www.w3.org/2000/svg" xmlns:xlink="http://www.w3.org/1999/xlink">
    <!-- Generator: Sketch 47.1 (45422) - http://www.bohemiancoding.com/sketch -->
    <title>RGA Logo</title>
    <desc>Created with Sketch.</desc>
    <defs>
        <polygon id="path-1" points="0.301705319 23.4418605 20.6790777 23.4418605 20.6790777 0.168055814 0.301705319 0.168055814 0.301705319 23.4418605"></polygon>
    </defs>
    <g id="Symbols" stroke="none" stroke-width="1" fill="none" fill-rule="evenodd">
        <g id="Where-students-work---1170" transform="translate(-211.000000, -162.000000)">
            <g id="RGA-Logo" transform="translate(211.000000, 162.000000)">
                <g>
                    <polygon id="Fill-1" fill="#010202" points="59.6072394 0.794734884 50.6835053 23.3541767 52.1601755 23.3541767 61.0833457 0.794734884"></polygon>
                    <polygon id="Fill-2" fill="#010202" points="0 23.6404465 22.8210106 23.6404465 22.8210106 0.689748837 0 0.689748837"></polygon>
                    <path d="M92.7917234,1.1800186 L92.5126277,1.1800186 L84.7740638,23.1506233 L89.9235213,23.1506233 L90.202617,23.1506233 L91.5107021,19.0349023 L98.7209574,19.0349023 L100.05667,23.1506233 L105.206691,23.1506233 L105.485223,23.1506233 L97.7184681,1.1800186 L92.7917234,1.1800186 Z M95.1293617,7.36866977 L97.6626489,15.3037395 L92.5684468,15.3037395 L95.1293617,7.36866977 Z" id="Fill-3" fill="#010202"></path>
                    <g id="Group-9" transform="translate(28.191489, 0.390028)">
                        <g id="Group-6" transform="translate(32.702128, 0.000000)">
                            <mask id="mask-2" fill="white">
                                <use xlink:href="#path-1"></use>
                            </mask>
                            <g id="Clip-5"></g>
                            <path d="M20.6790777,10.8279628 L20.6790777,22.7604279 L20.4005457,22.7604279 L16.7818862,22.7604279 L16.7818862,20.7176372 C16.2434287,21.5068465 15.6220883,22.0895442 14.9167372,22.464614 C14.2113862,22.8396837 13.4970138,23.0964279 12.7736202,23.2348465 C12.4212266,23.2934512 12.0727798,23.3386605 11.7294074,23.3676837 C11.3860351,23.3972651 11.0567585,23.4117767 10.7410138,23.4117767 L10.4630457,23.4419163 C10.4444394,23.4223814 10.4303436,23.4117767 10.4213223,23.4117767 L10.3790351,23.4117767 C9.97138617,23.4117767 9.31226915,23.372707 8.40337553,23.2934512 C7.49335426,23.2147535 6.53766277,22.9384744 5.53573723,22.464614 C4.21806702,21.8328 3.01654574,20.712614 1.93060957,19.1040558 C0.844673404,17.4954977 0.301705319,15.032986 0.301705319,11.7159628 C0.301705319,8.28173023 1.17902447,5.49828837 2.93253511,3.36619535 C4.68660957,1.23410233 7.43809894,0.168055814 11.1864394,0.168055814 L11.4649713,0.168055814 C13.599067,0.168055814 15.2691309,0.577730233 16.4757266,1.39707907 C17.6823223,2.21642791 18.5816309,3.10945116 19.1759074,4.07670698 C19.6957585,4.94517209 20.0430777,5.75447442 20.2195564,6.50461395 C20.3960351,7.25475349 20.4935777,7.72861395 20.512184,7.92619535 L20.2336521,7.92619535 L15.13945,7.92619535 C15.1022372,7.05773023 14.7825457,6.26796279 14.1792479,5.55745116 C13.57595,4.84693953 12.615184,4.48135814 11.2975138,4.46182326 C9.70187553,4.48135814 8.52798191,4.9155907 7.77639681,5.76452093 C7.0248117,6.61345116 6.51003511,7.54107907 6.23150319,8.54796279 C6.06460957,9.1792186 5.95804574,9.79149767 5.9118117,10.3836837 C5.86501383,10.9758698 5.84189681,11.4692651 5.84189681,11.8644279 C5.84189681,14.3319628 6.31043936,16.1034977 7.24752447,17.1790326 C8.1851734,18.2551256 9.21021596,18.8819163 10.3237798,19.0599628 C10.472067,19.0990326 10.611333,19.1235907 10.7410138,19.1330791 C10.8706947,19.1436837 11.0009394,19.148707 11.1306202,19.148707 C12.5413223,19.1085209 13.6453011,18.6648 14.4431202,17.8158698 C15.2409394,16.9674977 15.6779074,15.9701023 15.7517691,14.8253581 L11.6318649,14.8253581 L11.6318649,10.8279628 L11.909833,10.8279628 L20.6790777,10.8279628 Z" id="Fill-4" fill="#010202" mask="url(#mask-2)"></path>
                        </g>
                        <path d="M0.546407447,0.78987907 L0.824939362,0.78987907 L11.40295,0.78987907 C13.9080457,0.78987907 15.6711415,1.41666977 16.6916734,2.67025116 C17.7127691,3.92383256 18.2230351,5.37946047 18.2230351,7.03769302 C18.2230351,8.4788093 17.9445032,9.60904186 17.3880032,10.4283907 C16.8309394,11.2471814 16.2186202,11.8349023 15.5504819,12.1898791 C15.4208011,12.2685767 15.2956309,12.3333209 15.1744074,12.3824372 C15.0543117,12.4315535 14.9381628,12.4762047 14.8270883,12.5158326 L14.8270883,12.6045767 C15.9220457,12.9199256 16.6595351,13.4579721 17.0395564,14.2187163 C17.4201415,14.9783442 17.6479287,15.7826233 17.7217904,16.6315535 C17.7403968,16.8481116 17.7544926,17.065786 17.7635138,17.2829023 C17.7730989,17.5000186 17.7776096,17.7171349 17.7776096,17.9342512 C17.796216,19.2570419 17.8373755,20.2198326 17.9027798,20.821507 C17.9676202,21.4237395 18.130567,21.9511814 18.3899287,22.405507 C18.4085351,22.4646698 18.4361628,22.5238326 18.4733755,22.5829953 C18.5105883,22.6421581 18.5478011,22.7018791 18.5850138,22.7604837 L18.3064819,22.7604837 L13.3515457,22.7604837 C13.0544074,22.3067163 12.8548117,21.773693 12.7527585,21.1619721 C12.6507053,20.549693 12.5813543,19.5232744 12.5441415,18.0821581 C12.5441415,17.9839256 12.5396309,17.8745302 12.5300457,17.7567628 C12.5210245,17.6384372 12.51595,17.5296 12.51595,17.4308093 C12.4606947,16.7398326 12.2334713,16.1035535 11.8342798,15.521414 C11.4350883,14.9387163 10.5493117,14.6473674 9.17582234,14.6473674 L5.69642872,14.6473674 L5.69642872,22.7604837 L5.41789681,22.7604837 L0.546407447,22.7604837 L0.546407447,0.78987907 Z M5.69642872,10.6505302 L9.87215213,10.6505302 L9.9133117,10.6505302 L9.95503511,10.6505302 C10.7162053,10.6304372 11.4164819,10.4328558 12.0569926,10.057786 C12.6975032,9.68271628 13.0171947,8.96271628 13.0171947,7.89611163 C13.0171947,6.75136744 12.6975032,5.99173953 12.0569926,5.61611163 C11.4164819,5.2416 10.6327585,5.05406512 9.70469468,5.05406512 L5.69642872,5.05406512 L5.69642872,10.6505302 Z" id="Fill-7" fill="#010202"></path>
                    </g>
                </g>
            </g>
        </g>
    </g>
</svg>