<?xml version="1.0" encoding="UTF-8"?>
<svg width="208px" height="31px" viewBox="0 0 208 31" version="1.1" xmlns="http://www.w3.org/2000/svg" xmlns:xlink="http://www.w3.org/1999/xlink">
    <!-- Generator: Sketch 47.1 (45422) - http://www.bohemiancoding.com/sketch -->
    <title>Walmart Labs</title>
    <desc>Created with Sketch.</desc>
    <defs></defs>
    <g id="Symbols" stroke="none" stroke-width="1" fill="none" fill-rule="evenodd">
        <g id="Where-students-work---1170" transform="translate(-766.000000, -155.000000)" fill="#000000">
            <g id="Walmart-Labs" transform="translate(766.000000, 155.000000)">
                <g id="Page-1">
                    <path d="M18.1221614,10.5852679 C18.0331304,10.5512872 17.9683627,10.5202872 17.9004643,10.501409 C17.0755086,10.2724859 16.2431172,10.2367167 15.40466,10.4129795 C14.3235688,10.6401141 13.3929498,11.1631397 12.6196516,11.9526462 C11.0411605,13.5646462 10.3772433,15.5359282 10.4768406,17.7858128 C10.4971906,18.2446526 10.6153769,18.6893833 10.8270946,19.1023192 C11.1436929,19.7195372 11.6279827,20.1193577 12.3005095,20.2743577 C12.9830156,20.431941 13.6314747,20.3286077 14.2488218,20.0044987 C14.7528745,19.7398064 15.1862894,19.3813192 15.5629592,18.9536782 C16.5646073,17.8162167 17.1680617,16.4859987 17.4122611,14.9838897 C17.5967804,13.8490115 17.7834521,12.7147295 17.9677757,11.58005 C18.0209987,11.2525628 18.0697212,10.9246782 18.1221614,10.5852679 M21.9643891,8.33737051 C21.9806299,8.64637692 21.8960993,8.93352436 21.8489422,9.22325513 C21.5924154,10.7974987 21.3270833,12.37055 21.0633167,13.9436013 C20.9058002,14.8825436 20.7394785,15.8198962 20.5884192,16.7600308 C20.4688632,17.5054218 20.3604606,18.2545885 20.4228802,19.0126974 C20.4459695,19.2942808 20.4937136,19.5792423 20.5751135,19.8489026 C20.7388914,20.3916013 21.1216271,20.7618128 21.7925885,20.78705 C22.2422442,20.8041397 22.663136,20.7055756 23.0650476,20.5092423 C23.6371944,20.2296462 24.0956553,19.8085628 24.48974,19.3117679 C25.0791059,18.5683641 25.4688858,17.7192423 25.7445885,16.8134859 C25.989962,16.0068897 26.1326073,15.1804218 26.2053976,14.3388513 C26.264295,13.6588385 26.2779921,12.9792231 26.2419883,12.2992103 C26.1760467,11.0560308 25.957676,9.84146667 25.5109554,8.67837051 C24.4230156,5.84604359 22.4406563,3.97133846 19.5996854,3.03239615 C18.6099733,2.70510769 17.5891492,2.54513974 16.5499319,2.48313974 C14.8874973,2.38378077 13.2638058,2.58210128 11.6900109,3.13175513 C8.7195048,4.16926154 6.46066002,6.09384487 4.88119059,8.84370385 C4.04390743,10.3014987 3.50717742,11.8725628 3.21308147,13.5318577 C2.9876666,14.8034538 2.89354807,16.0839923 2.95381524,17.3748641 C3.0213223,18.8169603 3.25065061,20.2300436 3.75666002,21.5843064 C4.95124139,24.7810821 7.16488579,26.8857038 10.3770476,27.9021462 C11.5720203,28.2803064 12.8014314,28.4420628 14.0517795,28.4545821 C15.7987447,28.4722679 17.4999225,28.2073769 19.1443552,27.6026782 C19.5327654,27.4598 19.9068914,27.2759859 20.2870833,27.1102551 C20.3749404,27.0719026 20.4614277,27.0303705 20.570613,26.9802936 C20.7608068,27.3582551 20.8498378,27.7544987 20.9738943,28.1356397 C21.0948199,28.5072423 21.2470532,28.871691 21.3108425,29.2762808 C21.1799375,29.3458321 21.064295,29.4120051 20.944739,29.4696333 C19.6257099,30.1057295 18.2438698,30.5262167 16.7982405,30.7416269 C15.4547522,30.9417359 14.1038284,31.010691 12.7513392,30.938159 C10.0502743,30.793691 7.55760075,29.9944474 5.3500222,28.3735051 C3.11289708,26.7313 1.59936933,24.5507679 0.735083349,21.8974859 C0.369762559,20.7767167 0.148065475,19.6255436 0.0590344309,18.4481397 C-0.206884666,14.9316269 0.420050423,11.5951526 2.05391684,8.47468462 C3.51598269,5.6823 5.60067883,3.49560769 8.33755183,1.96746667 C9.85636275,1.11953718 11.4763364,0.564319231 13.1831887,0.261274359 C14.2067522,0.0796461538 15.238534,-0.00937948718 16.2752075,0.000755128205 C18.3714484,0.0216205128 20.3974427,0.406735897 22.2931191,1.34607564 C25.661819,3.01530641 27.795042,5.71946026 28.7464023,9.39156923 C28.9827748,10.3034859 29.0995913,11.2344795 29.1432263,12.1777936 C29.2150382,13.7226269 29.0737626,15.2428192 28.6792865,16.7363833 C28.298899,18.1760949 27.6858566,19.5011462 26.7433016,20.6537103 C25.7350006,21.8867551 24.4911097,22.7623064 22.9546882,23.1780244 C22.159866,23.3930372 21.3536948,23.4842487 20.5303044,23.3854859 C19.0975895,23.2133962 18.052502,22.2877679 17.7114446,20.8587872 C17.6316102,20.5237487 17.592867,20.1785756 17.5306431,19.8103513 C17.4782028,19.8411526 17.419501,19.8576462 17.3891718,19.8967936 C17.3142292,19.9937679 17.2537663,20.1022679 17.1850852,20.204409 C16.7358209,20.8721013 16.2231586,21.4817679 15.6015067,21.9926718 C14.6067071,22.8098 13.4743496,23.2746013 12.1989554,23.3940308 C11.5616497,23.4534474 10.9321708,23.4335756 10.3136497,23.2648641 C9.16681242,22.9524795 8.28354619,22.2714731 7.6466318,21.2586077 C7.18640978,20.5269282 6.91696858,19.7211269 6.80837027,18.8646526 C6.20472023,14.1047615 9.09734864,8.90133205 14.4930213,7.61443462 C15.7394559,7.31715256 16.9976309,7.25813333 18.2695029,7.37855641 C19.1948388,7.46619103 20.1029554,7.63589615 20.9879827,7.92483205 C21.3221915,8.03392821 21.656596,8.14759487 21.9643891,8.33737051" id="Fill-1"></path>
                    <path d="M52.5486856,24.6233199 C51.5333404,24.8488647 50.5356056,24.9669032 49.5271089,24.7129417 C48.6681061,24.4965378 48.0106461,24.0001404 47.5541419,23.2307045 C47.2616113,22.737884 47.0798314,22.2013455 46.9589057,21.6423519 C46.5462322,19.7338647 46.1298408,17.825775 45.7253855,15.9154994 C45.4105483,14.4280955 45.1045163,12.9389032 44.8080722,11.4477237 C44.6006593,10.4048519 44.4372726,9.35403141 44.3194777,8.29625577 C44.3059763,8.17523654 44.2791691,8.05560833 44.2572538,7.92862756 C44.1517863,7.96539038 44.1809415,8.04726218 44.1699838,8.10469167 C43.9883996,9.06390321 43.8347966,10.0294737 43.6254269,10.982525 C43.3047195,12.4429032 42.9523131,13.8961276 42.6026461,15.3497494 C41.8888324,18.3170058 41.1681701,21.2824737 40.4496602,24.2487365 C40.4208963,24.3675699 40.3845012,24.484416 40.3551503,24.5903327 C40.1254307,24.7051917 39.8910149,24.7127429 39.6642303,24.7467237 C38.963331,24.8516468 38.2618446,24.9043071 37.5537054,24.7954096 C36.589822,24.647166 35.8492011,24.1662686 35.340648,23.3207237 C34.9810017,22.7227814 34.762631,22.0676083 34.5988531,21.3925635 C34.2319669,19.879525 33.8717336,18.3646981 33.5085652,16.850666 C32.6926103,13.4502045 31.8766555,10.0497429 31.060505,6.64928141 C30.743124,5.32760833 30.424569,4.00633269 30.1073836,2.6844609 C30.0905558,2.61351859 30.0811635,2.54078782 30.0676621,2.46507628 C30.1813479,2.37128141 30.3069697,2.40526218 30.4226122,2.40506346 C31.5804071,2.40248013 32.7383977,2.40347372 33.8961927,2.40367244 C34.1644598,2.40367244 34.4325313,2.40188397 34.7007985,2.40466603 C34.7843507,2.40565962 34.8679029,2.41857628 34.9577167,2.426525 C35.0745332,2.76414679 35.1070149,3.11011474 35.1798051,3.44654423 C35.2504429,3.77244167 35.3069923,4.10171731 35.3696075,4.42940321 C35.4343752,4.76940962 35.4981644,5.10961474 35.5639104,5.44942244 C35.6298521,5.78923013 35.6987289,6.12864038 35.7644749,6.46844808 C35.8276771,6.79613397 35.8883357,7.12421731 35.9505595,7.45230064 C36.0151315,7.79230705 36.0795078,8.13231346 36.1450581,8.47212115 C36.2109998,8.81192885 36.2798766,9.15114038 36.3448399,9.49114679 C36.4078465,9.81883269 36.4665483,10.1475122 36.5287722,10.4753968 C36.5935398,10.8154032 36.6602642,11.1550122 36.7264015,11.4946212 C36.7901908,11.8223071 36.8557411,12.1495955 36.9177693,12.4776788 C36.98195,12.8176853 37.0418258,13.1586853 37.105028,13.4988904 C37.1682303,13.8392942 37.2351503,14.1789032 37.2967872,14.5195058 C37.3562717,14.8479865 37.4100817,15.1774609 37.4683921,15.5061404 C37.5288549,15.8469417 37.5936226,16.1869481 37.6531071,16.5279481 C37.7125915,16.8691468 37.7675755,17.2107429 37.8247119,17.5523391 C37.879696,17.8816147 37.9260704,18.2126788 37.992012,18.5397686 C38.0583451,18.8690442 38.0716508,19.2124288 38.232298,19.5218327 C38.3311127,18.9751596 38.4179913,18.4259032 38.5310901,17.8824096 C38.8381005,16.406134 39.1406103,14.928666 39.4728625,13.4583519 C40.2792294,9.89017244 41.10125,6.32596731 41.9175962,2.76017244 C41.9420553,2.65286474 41.974537,2.54754423 42.0056489,2.43328141 C42.3404448,2.37326859 42.6691748,2.41181987 42.9957524,2.40486474 C43.3125464,2.39830705 43.629536,2.40347372 43.9465257,2.40347372 L44.9336941,2.40347372 C45.2506837,2.40347372 45.5674777,2.40188397 45.8842717,2.40406987 C46.2112406,2.40605705 46.5389923,2.3933391 46.879854,2.41579423 C46.9542096,2.75083269 47.0266085,3.06242244 47.0923545,3.37520449 C47.7249641,6.38697372 48.3652049,9.39715321 48.9852914,12.4115058 C49.3613742,14.2397109 49.7180854,16.0720891 50.0139424,17.9157942 C50.0785144,18.3185955 50.130172,18.7237814 50.1904391,19.1271788 C50.2047232,19.2223647 50.2301607,19.3159609 50.2477712,19.3978327 C50.2782961,19.4099545 50.2921889,19.4194929 50.2964937,19.4161147 C50.305299,19.4093583 50.3125389,19.3960442 50.3144956,19.3847173 C50.4047007,18.8358583 50.4825784,18.2846147 50.5858935,17.7383391 C50.9699989,15.7098263 51.34706,13.6803199 51.7548418,11.656775 C52.3704278,8.60367244 53.009299,5.5553391 53.6385821,2.50481987 C53.6411259,2.49289679 53.6466047,2.48156987 53.6575624,2.44997372 C53.7150901,2.4364609 53.7833799,2.40665321 53.8518653,2.40645449 C55.2777317,2.40387115 56.7037938,2.40446731 58.1298559,2.40565962 C58.1772087,2.40565962 58.2243658,2.41678782 58.2799368,2.42374295 C58.331203,2.54237756 58.2824805,2.64471731 58.2556734,2.74824936 C57.9699913,3.84835192 57.6852877,4.94885192 57.3986273,6.04855705 C56.2148079,10.5918455 55.0302058,15.1347365 53.8465821,19.678025 C53.447997,21.2083519 53.0519556,22.7394737 52.6537618,24.2699994 C52.626172,24.3769096 52.5909509,24.4818327 52.5486856,24.6233199" id="Fill-4"></path>
                    <path d="M86.5880911,24.5911077 C86.541521,24.6058128 86.508061,24.6258833 86.4744053,24.6258833 C85.0726066,24.6272744 83.6706122,24.6270756 82.2688135,24.6252872 C82.2351579,24.6250885 82.2015022,24.6052167 82.1512143,24.5893192 C82.1431917,24.5193705 82.129299,24.4482295 82.1273422,24.3770885 C82.0799895,22.7126269 82.1079706,8.32266538 82.1609979,7.94728718 C82.2120685,7.93834487 82.2692049,7.91946667 82.326537,7.91946667 C83.6066273,7.91767821 84.8865219,7.91747949 86.1666122,7.91867179 C86.2249227,7.91867179 86.2828418,7.93218462 86.3620892,7.94192179 C86.4006367,8.18555 86.3779387,8.41944103 86.3816564,8.65114615 C86.3857656,8.89855 86.3826348,9.14635128 86.3826348,9.39395385 L86.3826348,10.0852936 C86.4820365,10.1389474 86.5076696,10.0711846 86.5419123,10.0256782 C86.7191917,9.78960128 86.8841437,9.54299231 87.0739462,9.31804359 C87.8961626,8.34432564 88.9484899,7.80103077 90.1914024,7.62099231 C90.8345784,7.52779359 91.4773629,7.50831923 92.1207345,7.61741538 C93.7203582,7.88846667 94.905743,8.73818462 95.6422548,10.2156526 C95.6896075,10.3108385 95.73833,10.4052295 95.7935097,10.5143256 C95.9295022,10.4241077 95.9878126,10.2973256 96.06706,10.1916077 C96.6041814,9.47522949 97.2315078,8.85940256 97.9989358,8.40016538 C99.231869,7.66272308 100.561269,7.42008846 101.97383,7.60410128 C103.047681,7.74399872 103.985344,8.17899231 104.768622,8.94008205 C105.359749,9.51457564 105.77477,10.2088962 106.075323,10.9777359 C106.397401,11.8014218 106.572723,12.6600821 106.642383,13.539409 C106.682496,14.0443513 106.697562,14.5524731 106.698345,15.0594026 C106.703433,18.0926333 106.70128,21.1258641 106.699715,24.1588962 C106.699519,24.3043577 106.725544,24.4545885 106.659602,24.6036269 C106.608336,24.6125692 106.562157,24.6280692 106.515978,24.6280692 C105.102635,24.6292615 103.689096,24.6288641 102.260881,24.6288641 C102.241901,24.5440115 102.217833,24.4758513 102.213137,24.4063 C102.205506,24.2956141 102.210593,24.1835372 102.210593,24.0722551 C102.210398,21.2123064 102.210398,18.3523577 102.210202,15.4926077 C102.210202,14.8847295 102.170872,14.2806269 102.037619,13.6860628 C101.964437,13.3593705 101.863666,13.0420179 101.720042,12.7395692 C101.134003,11.5077167 100.058977,11.1991077 99.0608512,11.3811333 C97.8265483,11.6064795 97.1009942,12.4110885 96.7781343,13.6117423 C96.6718841,14.0067936 96.6511428,14.4169474 96.6511428,14.8265051 C96.6513385,17.9340564 96.6513385,21.0416077 96.6499688,24.1489603 C96.6499688,24.2950179 96.6711014,24.4442551 96.6249227,24.5740179 C96.6016376,24.5926974 96.5926367,24.6016397 96.582266,24.6076013 C96.5720911,24.6133641 96.5603507,24.6201205 96.549393,24.6201205 C95.1720534,24.6236974 93.7947138,24.6270756 92.4173742,24.6290628 C92.3571071,24.6292615 92.2968399,24.6203192 92.2177881,24.614159 C92.2031127,24.5440115 92.1804147,24.4756526 92.1761099,24.4061013 C92.16887,24.2954154 92.1735661,24.1835372 92.1735661,24.0720564 C92.1735661,21.1131462 92.1729791,18.1540372 92.1741532,15.1953256 C92.1743488,14.6613705 92.13541,14.1319859 92.0178107,13.61055 C91.9385633,13.2592167 91.8219424,12.9217936 91.6528813,12.6036462 C91.0578408,11.4842679 90.0016,11.2231526 89.0946574,11.3777551 C88.3996282,11.496191 87.857028,11.8769346 87.4196997,12.4230115 C86.9017543,13.069441 86.6340741,13.8116526 86.6158766,14.6454731 C86.6125501,14.7939154 86.6143112,14.9425564 86.6143112,15.0911974 C86.6141155,18.111909 86.6145069,21.1328192 86.6133328,24.1535308 C86.6133328,24.2989923 86.631139,24.4474346 86.5880911,24.5911077" id="Fill-6"></path>
                    <path d="M67.1368038,16.6173513 C67.0593174,16.6074154 67.0012026,16.5943 66.9428922,16.5937038 C66.1852478,16.5839667 65.4324952,16.6402038 64.6889392,16.7892423 C64.1979966,16.8878064 63.7191857,17.0294923 63.2703127,17.2629859 C62.2066363,17.8162167 61.7526758,18.6685179 61.8831895,19.8755308 C61.976134,20.734191 62.5132553,21.3740628 63.3344933,21.5888769 C63.8399157,21.7210244 64.3498386,21.7089026 64.8542826,21.5825179 C66.0193174,21.2908 67.2066589,20.2493192 67.1602845,18.6263897 C67.1442393,18.0699795 67.1589148,17.5123769 67.156958,16.9553705 C67.1565667,16.8472679 67.144435,16.7393641 67.1368038,16.6173513 M71.8605366,24.6171397 C71.4543202,24.7584282 71.0619966,24.8408962 70.6606721,24.8583833 C70.2843936,24.8746782 69.9081151,24.8844154 69.5326194,24.7997615 C68.6098273,24.5919026 67.9594115,24.0507936 67.559848,23.1877615 C67.5134736,23.0878064 67.4674905,22.9872551 67.4199421,22.8876974 C67.4160286,22.8797487 67.4005705,22.8777615 67.3665234,22.8616654 C67.3232798,22.9033962 67.2681001,22.947909 67.2228997,23.0011654 C66.3850295,23.9842231 65.3158743,24.5664667 64.0798103,24.8399026 C63.016721,25.0749859 61.9458047,25.0950564 60.8964124,24.7757167 C58.9420342,24.1805564 57.7715206,22.847159 57.369022,20.8168577 C57.0837313,18.4829154 57.8149599,16.6022487 59.776578,15.2779923 C60.5555507,14.7521846 61.4172929,14.4117808 62.315626,14.1637808 C63.1642581,13.9294923 64.0285441,13.7872103 64.9041791,13.7045436 C65.4994152,13.6483064 66.0950427,13.6212808 66.6924312,13.6184987 C66.7869411,13.6181013 66.881451,13.6028 66.970482,13.5948513 C67.1168452,12.7467231 66.7476109,11.852691 66.0635394,11.3711974 C65.7899891,11.1786397 65.4863052,11.0538449 65.1659891,10.9668064 C64.5331838,10.7949154 63.8872685,10.7782231 63.2421358,10.8358513 C62.0029411,10.9467359 60.8255789,11.2861462 59.722181,11.8781269 C59.6055601,11.9405244 59.502832,12.0355115 59.3435545,12.0504154 C59.0486758,11.0580179 58.7624068,10.0638321 58.4812252,9.05653077 C58.5686909,8.99771026 58.6342412,8.94485128 58.7072271,8.90610128 C59.6529129,8.40235128 60.6584745,8.07108846 61.7004312,7.84971667 C62.8748583,7.60012692 64.0631782,7.49878077 65.2614773,7.55919103 C66.215577,7.60747949 67.1495225,7.76963333 68.0396373,8.14103718 C69.4412403,8.72606282 70.429974,9.73296667 71.0124914,11.1504218 C71.3007172,11.8516974 71.4615601,12.5863577 71.547069,13.3404923 C71.6069449,13.8704731 71.6190766,14.4018449 71.6188809,14.9342103 C71.6180982,16.9396718 71.6192722,18.9453321 71.6192722,20.9509923 C71.6192722,22.0532808 71.6738649,23.1519923 71.8253155,24.2445436 C71.840578,24.3544346 71.8464482,24.4655179 71.8605366,24.6171397" id="Fill-8"></path>
                    <path d="M118.28418,16.6105551 C118.183017,16.602209 118.123337,16.5936641 118.063461,16.5928692 C117.330667,16.5849205 116.601982,16.6395679 115.882298,16.7798628 C115.366897,16.8800167 114.863627,17.0266705 114.394404,17.2750679 C114.089546,17.4364269 113.809147,17.6321641 113.579036,17.8938756 C113.062265,18.4826769 112.926272,19.1823628 113.040154,19.9380872 C113.177907,20.8511962 113.720703,21.4252923 114.614535,21.6186449 C115.073388,21.7180038 115.535567,21.6975359 115.991679,21.5858564 C117.141256,21.3046705 118.358144,20.2612026 118.304921,18.6394654 C118.286919,18.0830551 118.30316,17.5254526 118.301595,16.9686449 C118.301203,16.8595487 118.291224,16.7506513 118.28418,16.6105551 M109.648169,9.02310641 C109.787487,8.94759359 109.913892,8.87486282 110.043819,8.8092859 C111.055837,8.29977308 112.127145,7.97824744 113.235043,7.7741641 C114.282283,7.58120897 115.338133,7.50589487 116.400831,7.55875385 C117.255725,7.60127949 118.096334,7.73601026 118.906614,8.03130513 C120.587442,8.64375385 121.712364,9.81400385 122.301339,11.5211897 C122.552778,12.2500872 122.683487,13.0042218 122.735928,13.7722667 C122.756865,14.0806769 122.762344,14.3904782 122.762735,14.6996833 C122.764887,16.5813436 122.764887,18.4628051 122.763518,20.3442667 C122.762344,21.7555615 122.804022,23.1640744 123.01887,24.5839141 C122.946471,24.6196833 122.877203,24.6683692 122.800304,24.6892346 C122.218569,24.8480103 121.624116,24.9173628 121.025945,24.8531769 C119.96266,24.7387154 119.182513,24.1946256 118.717008,23.2062026 C118.665154,23.0963115 118.619954,22.9830423 118.559883,22.8447346 C118.497463,22.8914333 118.445023,22.9176641 118.410193,22.9587987 C117.394652,24.1538885 116.085994,24.7589846 114.564443,24.948959 C113.643999,25.0638179 112.74097,25.0034077 111.855356,24.7190423 C109.789836,24.0557218 108.564925,22.2146 108.465132,20.2852474 C108.414061,19.2918564 108.55612,18.3358244 108.990513,17.4352346 C109.373836,16.6403628 109.93522,15.9994974 110.636902,15.4800487 C111.48573,14.8511064 112.438265,14.4498949 113.443826,14.1695038 C114.30322,13.92985 115.179638,13.7859782 116.067405,13.7029141 C116.662837,13.6470744 117.258464,13.6214397 117.855657,13.6186577 C117.938622,13.6182603 118.021783,13.6061385 118.117075,13.5985872 C118.193975,13.342241 118.158558,13.0958308 118.117662,12.8571705 C117.985388,12.0863436 117.577215,11.5178115 116.876707,11.1754205 C116.418833,10.9516641 115.930434,10.8515103 115.428338,10.8270679 C113.806603,10.7483756 112.287401,11.133491 110.852729,11.890209 C110.747262,11.9456513 110.642186,12.0020872 110.537696,12.0577282 C110.4064,11.8027731 109.725459,9.48274103 109.648169,9.02310641" id="Fill-10"></path>
                    <path d="M192.595066,16.113184 C192.579608,15.9073122 192.55828,15.5740622 192.528929,15.2416071 C192.457508,14.4338186 192.263597,13.6574276 191.934475,12.9179981 C191.608485,12.1857224 191.157851,11.5476391 190.540699,11.0361391 C189.139487,9.87443397 186.82155,9.62583782 185.075171,10.9930173 C183.788428,12.0005173 183.140948,13.3563699 183.097313,14.9983763 C183.071484,15.9756712 183.092616,16.9539596 183.092421,17.9320494 C183.092225,18.3942673 183.165602,18.8441647 183.310987,19.2811455 C183.751642,20.6052032 184.580511,21.5767353 185.84847,22.1430814 C186.579698,22.469575 187.349279,22.5544276 188.138622,22.4874596 C189.210321,22.3964468 190.140549,21.9843058 190.904063,21.206325 C191.447446,20.6530942 191.820985,19.9925558 192.088078,19.2646519 C192.445963,18.2891455 192.562193,17.2731006 192.595066,16.113184 M180.190204,0.365183974 L183.05446,0.365183974 C183.068157,0.443478846 183.086551,0.512433974 183.090464,0.581985256 C183.096334,0.69306859 183.092421,0.804748077 183.092421,0.916030128 C183.092616,4.01006859 183.092421,7.10410705 183.092421,10.1979468 C183.092421,10.3322801 183.092616,10.4664147 183.092616,10.5912096 C183.194757,10.6406904 183.219804,10.573325 183.249937,10.5250365 C183.466742,10.1798635 183.707615,9.85416474 183.987427,9.55847244 C184.650953,8.85699808 185.440688,8.35980577 186.351348,8.06331859 C187.632613,7.6460109 188.935988,7.57486987 190.246212,7.87870962 C191.808853,8.24117115 193.042961,9.12089551 193.978667,10.4356135 C194.675262,11.4141006 195.111612,12.510825 195.347789,13.6868378 C195.726611,15.5730686 195.67828,17.4507545 195.159747,19.3065814 C194.791296,20.6258699 194.165535,21.8040686 193.210652,22.7855365 C192.018027,24.0112288 190.577681,24.7172737 188.884526,24.8804212 C188.027284,24.9628891 187.180805,24.8971135 186.348413,24.6767353 C184.928221,24.3003635 183.83539,23.4607801 183.018261,22.2338955 C182.946645,22.1263891 182.902227,21.9926519 182.758212,21.9046199 C182.69364,22.0351776 182.722012,22.1605686 182.70675,22.2762224 C182.690705,22.3986327 182.682291,22.5222353 182.673486,22.6454404 C182.664876,22.7688442 182.659397,22.8924468 182.653331,23.0160494 C182.647265,23.1394532 182.644722,23.2632545 182.636699,23.3868571 C182.628872,23.5102609 182.615175,23.6332673 182.605783,23.7564724 C182.596586,23.8796776 182.590129,24.0032801 182.581911,24.126684 C182.573497,24.2482994 182.5643,24.3699147 182.554908,24.500075 C182.262573,24.5728058 181.982957,24.5308763 181.706471,24.5382288 C181.4384,24.5455814 181.170133,24.5426006 180.902061,24.5390237 C180.624206,24.5356455 180.345177,24.5551199 180.050103,24.5241199 C180.045407,24.4064788 180.033666,24.3106968 180.039145,24.2157096 C180.114675,22.943716 180.159092,21.6707288 180.158897,20.3961519 C180.15831,13.8863506 180.158505,7.37674808 180.159484,0.866946795 C180.159484,0.709164744 180.14109,0.548799359 180.190204,0.365183974" id="Fill-12"></path>
                    <path d="M145.310894,20.9883712 C145.338288,22.1806788 145.347876,23.3286724 145.354137,24.4681212 C145.263541,24.5877494 145.134201,24.5949032 145.020907,24.6278904 C144.516071,24.7747429 143.999496,24.8653583 143.478811,24.9225891 C142.994521,24.9758455 142.509057,25.0169801 142.020267,25.0032686 C141.369656,24.9849865 140.73685,24.8812558 140.124004,24.653525 C138.903202,24.2000506 138.071985,23.360666 137.646201,22.1071532 C137.405915,21.3995186 137.289294,20.6696276 137.232354,19.9276147 C137.209851,19.6321212 137.20359,19.3344417 137.20359,19.0377558 C137.20222,13.6660122 137.202611,8.29446731 137.203394,2.92272372 C137.203394,2.76454423 137.188523,2.60437756 137.218265,2.47362115 C137.249769,2.44142885 137.257204,2.43049936 137.267379,2.42473654 C137.277358,2.418775 137.290273,2.41539679 137.301817,2.41539679 C138.593452,2.41122372 139.885087,2.40724936 141.176527,2.40387115 C141.273972,2.40367244 141.371612,2.40605705 141.468862,2.40963397 C141.492538,2.41062756 141.51641,2.42016603 141.539108,2.42851218 C141.549283,2.43228782 141.557306,2.44301859 141.595658,2.47560833 C141.61816,2.69260833 141.602702,2.93822372 141.605441,3.18284551 C141.607985,3.43024936 141.605833,3.67785192 141.605833,3.92545449 L141.605833,4.66806346 L141.605833,5.37351218 L141.605833,6.11612115 C141.605833,6.36372372 141.60505,6.61112756 141.606224,6.85873013 C141.607398,7.10394808 141.611116,7.34936474 141.613659,7.60074295 C141.759044,7.66949936 141.894254,7.64585192 142.023985,7.64605064 C143.023481,7.64843526 144.022781,7.64644808 145.022081,7.64863397 C145.153377,7.64883269 145.288783,7.62617885 145.437103,7.68619167 C145.446886,7.75474936 145.465866,7.82509551 145.466062,7.89524295 C145.468019,9.14537756 145.468019,10.3955122 145.466258,11.6454481 C145.466062,11.7287109 145.446299,11.8119737 145.432798,11.9180891 C145.005644,11.9349801 144.593362,11.9244481 144.181471,11.9262365 C143.754905,11.9282237 143.328339,11.926634 142.901577,11.926634 L141.644771,11.926634 C141.6299,12.0319545 141.608376,12.1134288 141.607789,12.1953006 C141.604854,12.7397878 141.605833,13.2844737 141.605833,13.8289609 C141.60642,15.3761788 141.607985,16.9233968 141.607202,18.470416 C141.607007,18.9058071 141.652207,19.3352365 141.760805,19.7561212 C141.794461,19.887275 141.839857,20.0162429 141.891123,20.1414353 C142.144715,20.7608391 142.611003,21.0958776 143.262006,21.1513199 C143.859786,21.2023904 144.454826,21.1630442 145.042822,21.0338776 C145.112286,21.0185763 145.183315,21.0098327 145.310894,20.9883712" id="Fill-14"></path>
                    <path d="M173.4268,16.1368513 C173.305678,16.1293 173.198841,16.1167808 173.091808,16.1169795 C172.336903,16.1173769 171.583172,16.1559282 170.834724,16.2554859 C170.218943,16.3375564 169.61177,16.4665244 169.025731,16.6835244 C168.58899,16.8450821 168.174164,17.0485692 167.80082,17.3331333 C167.190909,17.7977359 166.800738,18.4050179 166.659658,19.1690885 C166.585106,19.5730821 166.582367,19.9830372 166.64009,20.3878256 C166.805629,21.547941 167.470329,22.3449987 168.63869,22.6086974 C169.069366,22.7060692 169.506499,22.6997103 169.945588,22.6428769 C171.004568,22.5055628 171.896444,22.0473192 172.594213,21.2250244 C173.134269,20.5885308 173.467304,19.8630115 173.461629,19.0009731 C173.455563,18.1357551 173.461434,17.2703385 173.459477,16.4051205 C173.459281,16.3220564 173.439714,16.239191 173.4268,16.1368513 M176.550713,24.4991013 C176.488294,24.5169859 176.453855,24.5354667 176.419417,24.5356654 C175.627138,24.5368577 174.83486,24.5368577 174.042581,24.5350692 C174.00873,24.5350692 173.974683,24.5159923 173.920482,24.4998962 C173.842213,24.1688321 173.837321,23.8228641 173.784685,23.4846462 C173.733614,23.1569603 173.74829,22.8187423 173.6348,22.4670115 C173.566314,22.5298064 173.508004,22.5697487 173.46613,22.6230051 C172.586973,23.7405949 171.446397,24.4343192 170.081972,24.7467038 C168.994032,24.9960949 167.901396,25.0028513 166.833415,24.6463513 C165.046532,24.0498 164.002423,22.7899282 163.690717,20.9098577 C163.55492,20.0905436 163.631428,19.2793769 163.867605,18.4876846 C164.143699,17.5632487 164.661253,16.7958 165.383285,16.1690436 C166.07851,15.5653385 166.877637,15.1500179 167.733509,14.8410115 C168.562965,14.5417423 169.418642,14.3525628 170.289776,14.2299538 C171.220591,14.0989987 172.155515,14.0383897 173.094939,14.0346141 C173.188275,14.0342167 173.281806,14.0167295 173.384143,14.0059987 C173.394122,13.9384346 173.407624,13.8911397 173.406841,13.8440436 C173.398427,13.3363192 173.367315,12.8309795 173.237976,12.3367679 C172.882243,10.9789282 172.00426,10.1969731 170.650401,10.0068 C168.944135,9.76694744 167.329445,10.0988064 165.815135,10.9320308 C165.708493,10.9908513 165.604786,11.0552359 165.496384,11.1190244 C165.464685,11.0918 165.423202,11.0739154 165.413419,11.0451013 C165.201897,10.4264923 164.994092,9.80649231 164.790397,9.20139615 C164.845577,9.04858205 164.971003,9.01281282 165.073731,8.95478718 C165.866988,8.50608205 166.715033,8.20403077 167.597516,7.99577436 C168.588598,7.76188333 169.593964,7.66788974 170.609114,7.70922308 C171.37889,7.74062051 172.13536,7.86601154 172.862088,8.14143462 C174.121046,8.61875513 175.042077,9.47145385 175.623225,10.7023128 C175.920452,11.3322487 176.102427,11.9977551 176.209656,12.6855179 C176.302992,13.2854474 176.33743,13.8897487 176.336256,14.4974282 C176.332734,16.47805 176.331364,18.4586718 176.337039,20.4390949 C176.338995,21.1197038 176.346822,21.8011077 176.383413,22.4803256 C176.417264,23.1096654 176.493381,23.7366205 176.550322,24.3645692 C176.553452,24.4005372 176.550713,24.4369026 176.550713,24.4991013" id="Fill-16"></path>
                    <path d="M79.0041528,2.43055897 C79.0113927,2.5227641 79.021959,2.59450128 79.021959,2.66623846 C79.0227417,9.96912308 79.0227417,17.2720077 79.0227417,24.5852256 C78.9425159,24.603309 78.8857708,24.6273538 78.8288301,24.6273538 C77.4634265,24.629341 76.0982186,24.6287449 74.7328151,24.6275526 C74.697007,24.6275526 74.6611989,24.6166231 74.6066062,24.6076808 C74.5925178,24.5428987 74.5704068,24.4747385 74.5641452,24.4047897 C74.556514,24.3187449 74.5616015,24.2317064 74.5616015,24.1448667 C74.5616015,17.06395 74.5616015,9.9826359 74.5619929,2.90152051 C74.5621885,2.75486667 74.5686457,2.60821282 74.5725592,2.44506538 C74.6463278,2.42916795 74.7026815,2.4065141 74.7590352,2.40631538 C76.1242431,2.40492436 77.489451,2.40571923 78.8548546,2.40691154 C78.8902713,2.40691154 78.9258837,2.41784103 79.0041528,2.43055897" id="Fill-18"></path>
                    <path d="M129.743258,7.93798718 C129.771826,8.47512179 129.753433,8.98046154 129.756759,9.48520513 C129.760281,9.9919359 129.757542,10.4984679 129.757542,11.0459359 C129.824658,11.0073846 129.876902,10.995859 129.892165,10.9652564 C129.947149,10.8553654 129.988436,10.7383205 130.036963,10.6250513 C130.483292,9.58615385 131.158949,8.74557692 132.130855,8.17267308 C133.094543,7.60433974 134.128281,7.41416667 135.227766,7.62679487 C135.262596,7.63335256 135.295273,7.65123718 135.338517,7.66733333 C135.348887,7.71204487 135.369824,7.75914103 135.369824,7.80583974 C135.370803,9.16685897 135.369824,10.5276795 135.367085,11.8886987 C135.367085,11.9224808 135.344583,11.9560641 135.332059,11.9912372 C135.181392,12.0315769 135.038746,11.9890513 134.894927,11.9731538 C134.348413,11.9125449 133.802878,11.8952564 133.256951,11.9876603 C131.871198,12.2221474 130.734731,13.1920897 130.419307,14.8482051 C130.344951,15.2390833 130.326754,15.6335385 130.326754,16.0297821 C130.326754,18.7393013 130.327145,21.4488205 130.32558,24.1585385 C130.32558,24.3036026 130.350821,24.4536346 130.292315,24.589359 C129.979043,24.6455962 126.06833,24.645 125.750754,24.5881667 C125.741948,24.5482244 125.722968,24.5021218 125.722968,24.4560192 C125.721598,18.9632564 125.721598,13.4706923 125.721598,7.96223077 C125.804955,7.94533974 125.873049,7.91950641 125.941143,7.91930769 C127.135138,7.91692308 128.328936,7.91732051 129.522931,7.91811538 C129.582611,7.9183141 129.642291,7.92864744 129.743258,7.93798718" id="Fill-20"></path>
                    <path d="M152.456388,22.0337865 L162.032215,22.0337865 C162.053544,22.0943955 162.082699,22.1385109 162.082699,22.1830237 C162.085047,22.9256327 162.083873,23.6684404 162.082112,24.4112481 C162.082112,24.4346968 162.068806,24.4579468 162.056087,24.5002737 C161.99582,24.5121968 161.927139,24.5318699 161.85748,24.5376327 C161.772558,24.5445878 161.686853,24.5398186 161.60154,24.5398186 C157.712938,24.5398186 153.824336,24.5400173 149.935929,24.5394212 C149.791523,24.5394212 149.647116,24.5336583 149.481577,24.5302801 C149.468076,24.4414532 149.452227,24.3726968 149.447922,24.3031455 C149.442639,24.2167032 149.446161,24.1298635 149.446161,24.0430237 L149.446161,2.09422885 L149.446161,1.63618397 C149.520321,1.61690833 149.575696,1.59047885 149.631267,1.59028013 C150.496727,1.58749808 151.362187,1.58769679 152.227647,1.58928654 C152.274804,1.58928654 152.321961,1.60538269 152.38125,1.61631218 C152.39299,1.67811346 152.411384,1.73673526 152.413927,1.79595321 C152.419211,1.91955577 152.416471,2.04335705 152.416471,2.16715833 C152.416471,8.61694679 152.416471,15.0667353 152.417449,21.516325 C152.417449,21.6745045 152.398665,21.835466 152.456388,22.0337865" id="Fill-22"></path>
                    <path d="M207.221771,8.72878526 C206.990877,9.47397756 206.761157,10.1738622 206.520676,10.901766 C206.42871,10.8566571 206.363746,10.8300288 206.303871,10.7946571 C205.511201,10.3310481 204.659633,10.0508558 203.750343,9.95725962 C203.213417,9.90201603 202.679622,9.91751603 202.156394,10.0731122 C201.873451,10.1573686 201.610858,10.2833558 201.368811,10.4552468 C200.331942,11.1905032 200.183231,12.8474135 201.185466,13.7172019 C201.455886,13.9518878 201.746851,14.1573622 202.067363,14.308984 C202.608202,14.5643365 203.15315,14.8117404 203.704947,15.0406635 C204.281007,15.2795224 204.850806,15.5279199 205.386753,15.8504391 C205.839539,16.1228814 206.262192,16.4348686 206.631231,16.8177981 C207.380657,17.594984 207.769459,18.5291571 207.815833,19.6139583 C207.838531,20.1483109 207.80918,20.6761058 207.676905,21.1971442 C207.417639,22.2195481 206.866625,23.0408494 206.039713,23.6741635 C205.346249,24.2053365 204.560036,24.5272596 203.716883,24.7112724 C202.597048,24.9556955 201.470561,24.9692083 200.338399,24.8066571 C199.378038,24.6691442 198.457985,24.4016699 197.588025,23.9636955 C197.46886,23.9036827 197.354783,23.8343301 197.245598,23.7733237 C197.269274,23.4919391 197.770392,21.8676186 197.929082,21.5449006 C198.023788,21.5212532 198.08836,21.5896122 198.160563,21.6283622 C199.073571,22.1176058 200.036281,22.4580096 201.061801,22.5925417 C201.767201,22.6847468 202.472209,22.6764006 203.164303,22.4782788 C203.44705,22.3974006 203.715317,22.2813494 203.962648,22.1184006 C204.566885,21.7197724 204.887788,21.1476635 204.948838,20.4261186 C205.026911,19.4994968 204.698181,18.7572853 203.950125,18.2106122 C203.612198,17.9636058 203.250008,17.7599199 202.869425,17.5925994 C202.500777,17.4306442 202.126456,17.2820032 201.751938,17.1345545 C201.091543,16.874234 200.452672,16.5715865 199.855871,16.1817019 C199.423238,15.8993237 199.024458,15.5760096 198.677334,15.1891058 C197.826354,14.240625 197.503103,13.130984 197.692123,11.8645545 C197.898166,10.4844583 198.602979,9.43224679 199.738858,8.66877244 C200.451694,8.18966346 201.244755,7.91185577 202.08556,7.78884936 C203.421417,7.59370833 204.735554,7.70975962 206.01584,8.149125 C206.314437,8.25146474 206.60051,8.39374679 206.88854,8.52629167 C206.99753,8.57656731 207.095366,8.65108654 207.221771,8.72878526" id="Fill-24"></path>
                </g>
            </g>
        </g>
    </g>
</svg>